<?xml version="1.0" encoding="iso-8859-1"?>
<!-- Generator: Adobe Illustrator 16.0.0, SVG Export Plug-In . SVG Version: 6.00 Build 0)  -->
<!DOCTYPE svg PUBLIC "-//W3C//DTD SVG 1.1//EN" "http://www.w3.org/Graphics/SVG/1.1/DTD/svg11.dtd">
<svg version="1.1" id="Capa_1" xmlns="http://www.w3.org/2000/svg" xmlns:xlink="http://www.w3.org/1999/xlink" x="0px" y="0px"
	 width="25.748px" height="25.748px" viewBox="0 0 25.748 25.748" style="enable-background:new 0 0 25.748 25.748;"
	 xml:space="preserve">
<g>
	<path d="M23.034,22.891H22.6h-0.13v-1.459l0.011,0.014v-3.25l-0.011-0.014v-5.761H19.65c0.07-0.682,0.134-1.442,0.166-2.215
		C19.924,7.761,20.29,0,13.25,0S6.403,6.48,6.403,6.48l0.363,5.94h-3.09v10.443C3.659,22.88,3.65,22.891,3.65,22.891H2.854v0.377
		H0.086v2.48h1.827H9.48h7.974h7.08h1.128v-2.48l-2.645,0.014L23.034,22.891z M13.294,19.204c-0.715,0-1.294-0.571-1.294-1.277
		c0-0.704,0.58-1.276,1.294-1.276s1.294,0.572,1.294,1.276C14.589,18.632,14.009,19.204,13.294,19.204z M14.863,11.648v0.772h-3.135
		v-0.829c-2.285-0.712-3.942-2.844-3.942-5.363c0-0.187,0.01-0.371,0.028-0.552c1.53-0.104,6.813-0.584,6.949-2.293
		c0.503,0.928,3.171,3.266,4.229,3.42C18.753,9.142,17.079,11.052,14.863,11.648z"/>
</g>
<g>
</g>
<g>
</g>
<g>
</g>
<g>
</g>
<g>
</g>
<g>
</g>
<g>
</g>
<g>
</g>
<g>
</g>
<g>
</g>
<g>
</g>
<g>
</g>
<g>
</g>
<g>
</g>
<g>
</g>
</svg>
